<svg fill="#5b5b5b" viewBox="0 0 32 32" xmlns="http://www.w3.org/2000/svg"><path d="m16 4c-.261719 0-.496094.015625-.75.03125-1.40625.078125-2.78125.367188-4.0625.875l.75 1.875c1.078125-.429687 2.214844-.683594 3.40625-.75.207031-.011719.429688-.03125.65625-.03125 1.882813 0 3.664063.476563 5.21875 1.3125l.9375-1.75c-1.835937-.988281-3.9375-1.5625-6.15625-1.5625zm-6.5 1.71875c-1.175781.679688-2.257812 1.554688-3.1875 2.59375-.414062.460938-.777344.980469-1.125 1.5-.382812.570313-.714844 1.167969-1 1.78125l1.8125.8125c.238281-.515625.519531-1.011719.84375-1.5.292969-.441406.621094-.863281.96875-1.25.792969-.886719 1.699219-1.613281 2.6875-2.1875zm14.46875 1-1.21875 1.59375c2.441406 1.894531 4.039063 4.78125 4.21875 8.09375.003906.0625.046875.609375 0 1.53125l2 .125c.050781-1.003906.007813-1.664062 0-1.78125-.210937-3.902344-2.117187-7.328125-5-9.5625zm-7.96875.28125v2c4.25 0 7.769531 3.3125 8 7.5625.007813.113281.128906 3.066406-1 6.625l1.90625.59375c1.238281-3.902344 1.109375-7.03125 1.09375-7.3125-.285156-5.292969-4.707031-9.46875-10-9.46875zm-1.84375.15625c-2.152344.394531-4.105469 1.496094-5.59375 3.15625-.320312.355469-.636719.753906-.90625 1.15625h.03125v.03125c-1.167969 1.761719-1.785156 3.800781-1.6875 5.90625v.0625.5l2 .0625v-.65625c-.089844-1.714844.382813-3.375 1.34375-4.8125.210938-.320312.433594-.625.6875-.90625 1.199219-1.339844 2.78125-2.214844 4.5-2.53125zm1.4375 2.84375c-1.589844.085938-3.070312.722656-4.25 1.78125l1.3125 1.5c.847656-.761719 1.925781-1.21875 3.0625-1.28125.105469-.007812.183594 0 .28125 0 .582031 0 1.140625.097656 1.65625.28125l.6875-1.875c-.726562-.257812-1.535156-.40625-2.34375-.40625-.144531 0-.269531-.007812-.40625 0zm4.28125 1.15625-1.09375 1.6875c1.269531.847656 2.128906 2.234375 2.21875 3.875l2-.09375c-.125-2.28125-1.347656-4.285156-3.125-5.46875zm-4.09375 1.84375c-1.054687.058594-2.042969.554688-2.75 1.34375-.707031.789063-1.089844 1.816406-1.03125 2.875 0-.003906.050781 1.125-.40625 2.4375s-1.371094 2.792969-3.34375 3.75c0 0-.292969.132813-.625.28125-.332031.148438-.75.320313-.84375.34375l.4375 1.9375c.445313-.101562.875-.300781 1.25-.46875s.65625-.3125.65625-.3125c2.5-1.210937 3.761719-3.207031 4.34375-4.875s.539063-2.996094.53125-3.1875v-.03125c-.03125-.539062.136719-1.035156.5-1.4375.363281-.40625.847656-.628906 1.375-.65625.050781-.003906.089844 0 .125 0v-2c-.082031 0-.148437-.003906-.21875 0zm-5.625.125c-.828125 1.238281-1.230469 2.714844-1.15625 4.21875v.03125c.003906.082031.089844 2.265625-2.0625 3.3125-.046875.019531-.792969.3125-1.9375.3125v2c1.566406 0 2.75-.46875 2.75-.46875h.03125l.03125-.03125c3.222656-1.5625 3.191406-5.039062 3.1875-5.21875v-.03125c-.058594-1.089844.25-2.109375.84375-3zm7.75.34375-.96875 1.78125c.59375.320313 1.023438.902344 1.0625 1.625.007813.164063.285156 6.386719-4.625 10.34375l1.25 1.5625c5.71875-4.605469 5.402344-11.53125 5.375-12-.074219-1.429687-.902344-2.671875-2.09375-3.3125zm-1.90625 2.53125c-.550781 0-1 .449219-1 1v.0625s.117188 2.058594-.90625 4.375l1.8125.8125c1.183594-2.675781 1.101563-5.078125 1.09375-5.25 0-.023437 0-.042969 0-.0625-.035156-.523437-.46875-.9375-1-.9375zm4.96875 1.9375c-.125 2.03125-.765625 6.195313-3.71875 9.6875l1.5 1.28125c3.363281-3.972656 4.078125-8.558594 4.21875-10.84375zm-7.40625 4.5625c-.800781 1.347656-2.039062 2.644531-4 3.59375l.875 1.8125c2.320313-1.125 3.871094-2.769531 4.84375-4.40625z" fill="#5b5b5b"/></svg>